<?xml version="1.0" encoding="UTF-8"?>
<svg version="1.1" xmlns="http://www.w3.org/2000/svg" width="1080" height="1080">
<path d="M0 0 C356.4 0 712.8 0 1080 0 C1080 356.4 1080 712.8 1080 1080 C723.6 1080 367.2 1080 0 1080 C0 723.6 0 367.2 0 0 Z " fill="#FEFEFE" transform="translate(0,0)"/>
<path d="M0 0 C356.4 0 712.8 0 1080 0 C1080 356.4 1080 712.8 1080 1080 C723.6 1080 367.2 1080 0 1080 C0 723.6 0 367.2 0 0 Z M397 58 C395.83307617 58.38349609 394.66615234 58.76699219 393.46386719 59.16210938 C342.76569752 76.0396936 294.7816887 100.96673358 252 133 C251.09797852 133.67240723 251.09797852 133.67240723 250.17773438 134.35839844 C242.94715428 139.76700337 235.99144124 145.46298951 229.13671875 151.3359375 C226.20052038 153.8459573 223.19987481 156.26929015 220.1875 158.6875 C216.16266356 161.95986702 212.48164975 165.40547349 208.87109375 169.125 C207.10501276 170.894768 205.28325204 172.5112562 203.375 174.125 C194.8980032 181.42696754 186.85979014 189.55413871 179.62890625 198.08984375 C177.67762284 200.3780394 175.65182313 202.5909906 173.625 204.8125 C168.89756303 210.06432494 164.40189742 215.47404377 160 221 C159.23212158 221.9590625 159.23212158 221.9590625 158.44873047 222.9375 C150.01257254 233.5054945 142.09155357 244.32771442 134.60449219 255.58789062 C133.5396295 257.18874933 132.47000168 258.78644912 131.39550781 260.38085938 C122.12229513 274.14692951 113.83661535 288.37135375 106 303 C105.18813232 304.51062012 105.18813232 304.51062012 104.35986328 306.05175781 C85.72314505 341.08130846 72.36276802 378.50796319 63 417 C62.76684082 417.94552734 62.53368164 418.89105469 62.29345703 419.86523438 C59.60053493 430.85852987 57.36689283 441.92143001 55.375 453.0625 C55.18083496 454.11743652 54.98666992 455.17237305 54.78662109 456.25927734 C50.5526139 480.81220962 49.44838198 505.25042029 49.55296707 530.09838486 C49.56266271 532.47742567 49.56794627 534.8564488 49.57272339 537.23550415 C49.63463728 560.66443828 50.12509987 583.84357585 54 607 C54.12822144 607.77291382 54.25644287 608.54582764 54.3885498 609.34216309 C56.33104275 620.94997004 58.57084644 632.48503086 61 644 C61.21769043 645.04913574 61.43538086 646.09827148 61.65966797 647.17919922 C68.85406851 681.3540994 81.53774762 714.31240505 96 746 C96.68373071 747.5220739 97.36733653 749.04420391 98.05078125 750.56640625 C115.59886257 789.19289883 139.85223399 826.27055718 168 858 C169.22975555 859.41615551 170.45901902 860.83273869 171.6875 862.25 C175.0300692 866.05613719 178.42679198 869.81315819 181.82421875 873.5703125 C183.68484032 875.64806226 185.50302808 877.75294291 187.3125 879.875 C193.92416677 887.45535283 201.16038641 894.58585774 208.8203125 901.1015625 C211.13747533 903.11973658 213.38178457 905.2030595 215.62670898 907.30078125 C221.8819162 913.1419943 228.31103564 918.65600166 235 924 C236.11824481 924.92059219 237.23537544 925.84253894 238.3515625 926.765625 C247.45276364 934.24134616 256.96296732 940.95755901 266.75439453 947.49658203 C268.79094813 948.86004116 270.81725226 950.23704732 272.83984375 951.62109375 C289.35605517 962.87242871 306.61461964 972.63419093 324.42138672 981.68505859 C326.65473081 982.82393298 328.8780205 983.97926428 331.09765625 985.14453125 C415.1989557 1028.88158724 512.69039275 1041.39204054 632.703125 1028.4296875 C635.13377128 1027.97497476 637.56671851 1027.53412917 640 1027.09375 C680.47105647 1019.68361003 719.57067419 1007.03942321 757 990 C758.07330566 989.51418457 759.14661133 989.02836914 760.25244141 988.52783203 C775.17969587 981.72038534 789.39207238 974.00616434 803.43798828 965.53662109 C805.62233403 964.22651321 807.81758795 962.94231395 810.02734375 961.67578125 C826.5113951 952.16575162 842.16378371 940.90250121 857 929 C857.91265625 928.2678125 858.8253125 927.535625 859.765625 926.78125 C862.5272314 924.54040367 865.26666848 922.27523126 868 920 C869.00546875 919.16984375 870.0109375 918.3396875 871.046875 917.484375 C884.19746189 906.55833612 896.40058319 894.68907128 908.5 882.625 C909.01873688 882.10894196 909.53747375 881.59288391 910.07192993 881.06118774 C915.93265566 875.22344844 921.676555 869.33964847 927 863 C927.80969238 862.0423877 927.80969238 862.0423877 928.63574219 861.06542969 C956.44142257 827.97125015 979.7515898 792.68207364 999 754 C999.49193848 753.02788574 999.98387695 752.05577148 1000.49072266 751.05419922 C1013.43251117 725.4480406 1022.64487911 698.38558935 1031 671 C1031.30276855 670.00983887 1031.60553711 669.01967773 1031.91748047 667.99951172 C1039.72997387 642.03919924 1044.11573592 614.91685283 1047 588 C1047.0875354 587.20147614 1047.1750708 586.40295227 1047.26525879 585.58023071 C1048.87775326 570.48843377 1049.31356716 555.51202988 1049.26074219 540.34008789 C1049.25004019 536.70116404 1049.2607012 533.062737 1049.2734375 529.42382812 C1049.28784478 507.51737638 1047.86931894 485.81021453 1044.75 464.125 C1044.5904332 462.99659698 1044.5904332 462.99659698 1044.42764282 461.84539795 C1042.32325066 447.06774268 1039.52940491 432.50794964 1036 418 C1035.71286133 416.8130957 1035.42572266 415.62619141 1035.12988281 414.40332031 C1027.79578027 384.55154079 1017.7509624 355.96480449 1005 328 C1004.50886719 326.92137695 1004.01773438 325.84275391 1003.51171875 324.73144531 C989.45557006 294.12501601 972.28396631 264.90138266 952 238 C951.54254395 237.39091797 951.08508789 236.78183594 950.61376953 236.15429688 C944.9339045 228.61454219 939.05475122 221.24195734 933 214 C932.34741211 213.21786133 932.34741211 213.21786133 931.68164062 212.41992188 C920.89769154 199.53698129 909.41067056 187.34415942 897.5625 175.4375 C896.92473633 174.79506348 896.28697266 174.15262695 895.62988281 173.49072266 C891.25044264 169.126101 886.69111712 165.02582056 882 161 C880.90609029 160.04966297 879.81233137 159.09915234 878.71875 158.1484375 C864.65582661 146.00229945 850.36461593 134.46842499 835 124 C834.25427734 123.49049805 833.50855469 122.98099609 832.74023438 122.45605469 C816.98096718 111.72333429 800.73723912 102.11949171 784 93 C783.24734863 92.5860498 782.49469727 92.17209961 781.71923828 91.74560547 C725.9696133 61.16397839 663.84532961 44.42977002 601 37 C599.9884082 36.87995605 598.97681641 36.75991211 597.93457031 36.63623047 C531.36965707 29.18460271 460.55993321 37.05064601 397 58 Z " fill="#FEFEFE" transform="translate(0,0)"/>
<path d="M0 0 C1.00611328 0.44279297 2.01222656 0.88558594 3.04882812 1.34179688 C34.86091471 15.42255651 64.84710423 32.56103713 93 53 C93.58281738 53.42087891 94.16563477 53.84175781 94.76611328 54.27539062 C117.24856561 70.57325974 138.21051716 89.17492052 157.875 108.75 C158.5767334 109.44706055 159.2784668 110.14412109 160.00146484 110.86230469 C163.98227835 114.85542511 167.78138538 118.9525883 171.46337891 123.22265625 C173.34606676 125.40028059 175.29694675 127.51047384 177.25 129.625 C182.28082745 135.20726722 186.87388348 141.08302455 191.46386719 147.02685547 C193.06611773 149.08492744 194.69085589 151.12357082 196.3203125 153.16015625 C205.22805354 164.34951598 213.26986282 175.97139092 221 188 C221.80969238 189.25006836 221.80969238 189.25006836 222.63574219 190.52539062 C263.23936955 253.46718381 288.72991883 325.90146535 297.375 400.25 C297.45462982 400.93353546 297.53425964 401.61707092 297.61630249 402.32131958 C306.0260047 475.87861274 297.7780507 550.06347502 274 620 C273.6194043 621.1250293 273.23880859 622.25005859 272.84667969 623.40917969 C260.25106411 660.34963668 242.92507079 695.12408083 222 728 C221.50129395 728.7842334 221.00258789 729.5684668 220.48876953 730.37646484 C217.7498187 734.64946972 214.91972147 738.8486425 212 743 C211.4951709 743.71833008 210.9903418 744.43666016 210.47021484 745.17675781 C203.95788337 754.39950194 197.2685773 763.35846921 190 772 C188.49864567 773.85307021 186.99866596 775.7072549 185.5 777.5625 C181.90051473 781.96465795 178.17242222 786.22135424 174.3359375 790.41796875 C173.08740486 791.79803576 171.84430603 793.18378323 170.64135742 794.60375977 C165.21387379 800.97690944 159.30121542 806.85002853 153.37573242 812.75463867 C151.56639067 814.55862085 149.76245681 816.36788665 147.95898438 818.17773438 C142.14178832 823.99858662 136.29657317 829.69310763 130 835 C128.91632065 835.94864142 127.83424448 836.89911786 126.75390625 837.8515625 C117.81121147 845.65207426 108.52386899 852.92410877 99 860 C98.26201172 860.54833496 97.52402344 861.09666992 96.76367188 861.66162109 C55.99573982 891.81253522 11.21342606 914.9833282 -36.55566406 931.78125 C-38.87005636 932.60017872 -41.17930834 933.43376858 -43.48339844 934.28125 C-51.68474865 937.28604516 -59.92765942 939.78467908 -68.375 942 C-69.33995392 942.2547963 -69.33995392 942.2547963 -70.32440186 942.51473999 C-88.1039393 947.19858488 -105.96016901 950.90944264 -124.17578125 953.421875 C-127.90959263 953.87493676 -127.90959263 953.87493676 -131 955 C-135.27694169 955.61897773 -139.57840057 956.03981279 -143.875 956.5 C-145.02097656 956.63019531 -146.16695312 956.76039063 -147.34765625 956.89453125 C-165.35793224 958.838934 -183.45952625 959.2383819 -201.5625 959.25 C-203.01142639 959.25101212 -203.01142639 959.25101212 -204.48962402 959.25204468 C-243.51006574 959.2093169 -281.94484036 954.69687948 -319.72363281 944.84667969 C-322.77552615 944.05800859 -325.83368291 943.30714227 -328.8984375 942.5703125 C-353.03591584 936.67848708 -376.27642571 927.97810466 -399 918 C-399.94456055 917.5875 -400.88912109 917.175 -401.86230469 916.75 C-438.55296203 900.64988296 -473.55522776 879.89027669 -505 855 C-505.64936523 854.48663086 -506.29873047 853.97326172 -506.96777344 853.44433594 C-519.14872386 843.76656201 -531.42367241 833.92835096 -542.26171875 822.7421875 C-544.02163931 820.97831206 -545.85308886 819.36488566 -547.75 817.75 C-555.47395242 811.09247099 -562.70430417 803.73475799 -569.30859375 795.96875 C-571.23867842 793.72218493 -573.24418139 791.55416096 -575.25 789.375 C-579.87557884 784.25382343 -584.10024524 778.86882558 -588.32421875 773.41796875 C-590.58421374 770.50859598 -592.9326462 767.68755449 -595.3125 764.875 C-657.73703001 688.93818353 -696.9266701 582.99968951 -698.04872131 406.88658142 C-697.31031966 399.54670982 -696.21930522 392.27505522 -695 385 C-694.81276367 383.78908691 -694.62552734 382.57817383 -694.43261719 381.33056641 C-679.37925808 284.02970899 -634.22456846 192.75001946 -567.4375 120.65625 C-565.47104431 118.51331752 -563.5672274 116.34307833 -561.6875 114.125 C-554.44162815 105.77649547 -546.41116266 97.8378037 -537.9765625 90.6953125 C-535.49139806 88.5637683 -533.09559854 86.34316401 -530.6875 84.125 C-525.28302581 79.20781447 -519.72074725 74.54274921 -514 70 C-513.36739258 69.49484863 -512.73478516 68.98969727 -512.08300781 68.46923828 C-485.78639458 47.52475927 -457.82280575 29.51469632 -428 14 C-427.08541016 13.52079102 -426.17082031 13.04158203 -425.22851562 12.54785156 C-392.81087699 -4.36113274 -358.51066707 -17.33469425 -323 -26 C-321.68311729 -26.32866011 -320.36639119 -26.65794828 -319.04980469 -26.98779297 C-239.10019941 -46.93022046 -154.01847298 -46.41231835 0 0 Z M-244.77833557 -8.24850464 C-247.02622491 -7.99706661 -249.27529062 -7.77455612 -251.52709961 -7.5612793 C-300.24914469 -2.90413682 -348.54249818 10.65612246 -393 31 C-394.5782959 31.71905518 -394.5782959 31.71905518 -396.18847656 32.45263672 C-410.91478673 39.21389902 -425.10428321 46.6694242 -439 55 C-439.87640137 55.52207031 -440.75280273 56.04414063 -441.65576172 56.58203125 C-454.24069815 64.10964104 -466.28018941 72.18791829 -478 81 C-478.92014893 81.69053467 -478.92014893 81.69053467 -479.85888672 82.39501953 C-487.39411578 88.0720181 -494.76207886 93.94878409 -502 100 C-502.55333008 100.46164551 -503.10666016 100.92329102 -503.67675781 101.39892578 C-510.68082473 107.26014246 -517.4003213 113.2345829 -523.78125 119.78125 C-525.74304335 121.74304335 -527.74839316 123.53451723 -529.875 125.3125 C-535.19736166 129.87452428 -539.783783 135.14054307 -544.47851562 140.33007812 C-545.9142584 141.90589337 -547.3665156 143.4638181 -548.828125 145.015625 C-555.18555457 151.78882391 -560.97921255 158.88085371 -566.63818359 166.24414062 C-567.95604387 167.94332512 -569.29497111 169.6228004 -570.64453125 171.296875 C-602.17201825 210.49744245 -625.89362726 255.8257032 -643 303 C-643.30131836 303.82935059 -643.60263672 304.65870117 -643.91308594 305.51318359 C-648.05923558 317.07014841 -651.25341444 328.85160779 -654.19824219 340.765625 C-654.74611992 342.97582115 -655.30181995 345.18408911 -655.86425781 347.390625 C-661.04684839 367.7811453 -664.50864101 388.12714734 -667 409 C-667.13277344 410.10053711 -667.26554688 411.20107422 -667.40234375 412.33496094 C-672.13212257 453.58766666 -670.7822343 499.32808115 -662.0625 540 C-661.70734932 541.70812904 -661.35319424 543.41646535 -661 545.125 C-660.82855469 545.95 -660.65710938 546.775 -660.48046875 547.625 C-659.78279076 551.07368469 -659.17716198 554.53554155 -658.5625 558 C-656.06062588 571.40193108 -652.72227135 584.57741394 -648.2109375 597.4453125 C-647.27280523 600.19918466 -646.42027603 602.93995359 -645.60546875 605.73046875 C-638.82005013 628.5549314 -629.01901215 650.89658424 -618.03613281 672.00146484 C-616.93483385 674.12569512 -615.85408096 676.25972613 -614.7734375 678.39453125 C-601.97117574 703.45546246 -586.5300617 726.99737119 -569 749 C-567.93265625 750.33998047 -567.93265625 750.33998047 -566.84375 751.70703125 C-551.34874146 770.87929725 -534.81449471 790.19314097 -516.0390625 806.23828125 C-513.7730777 808.19605739 -511.57856506 810.22228948 -509.375 812.25 C-503.79009611 817.28320365 -497.91133881 821.87667279 -491.96435547 826.46826172 C-489.93010738 828.05449992 -487.91896879 829.66685422 -485.91015625 831.28515625 C-469.62980106 844.31463291 -452.07394462 855.61840983 -434 866 C-432.99936523 866.57645264 -432.99936523 866.57645264 -431.97851562 867.16455078 C-426.69595156 870.19167908 -421.36628595 873.12408543 -416 876 C-415.19804199 876.43038574 -414.39608398 876.86077148 -413.56982422 877.30419922 C-381.10667142 894.54245933 -346.23997279 906.55483042 -310.62548828 915.33300781 C-308.5732899 915.85435856 -306.53664876 916.43704114 -304.5078125 917.04296875 C-288.58136774 921.38815691 -271.80964033 923.29710413 -255.4375 925.25 C-254.74416565 925.33272156 -254.0508313 925.41544312 -253.33648682 925.50067139 C-248.89355066 926.0260636 -244.44957282 926.53415922 -240 927 C-238.7620166 927.13164299 -238.7620166 927.13164299 -237.49902344 927.26594543 C-230.84228408 927.92971495 -224.25771666 928.15972586 -217.5703125 928.16796875 C-216.51011398 928.17224884 -215.44991547 928.17652893 -214.35758972 928.18093872 C-210.94668288 928.19087829 -207.53591851 928.19099979 -204.125 928.1875 C-202.95705902 928.18656342 -201.78911804 928.18562683 -200.58578491 928.18466187 C-164.52478243 928.12186854 -129.58269354 924.86947821 -94.44726562 916.57324219 C-92.13037384 916.03053848 -89.8093627 915.51454059 -87.484375 915.0078125 C-76.7729243 912.64213826 -66.40358744 909.46096188 -56 906 C-55.03449219 905.68434082 -54.06898438 905.36868164 -53.07421875 905.04345703 C-30.74114282 897.71852028 -8.84178341 889.00970854 11.97851562 878.05566406 C14.27242874 876.85773166 16.58097448 875.69072811 18.890625 874.5234375 C43.3258811 862.07907179 66.58767841 847.14600345 88 830 C88.64066406 829.48937012 89.28132812 828.97874023 89.94140625 828.45263672 C97.32879542 822.5528883 104.63877909 816.60530435 111.59375 810.1953125 C112.90817516 808.99611293 114.23023543 807.80438671 115.58618164 806.65234375 C121.91142732 801.25852982 127.77092439 795.41518243 133.64477539 789.54052734 C135.42510252 787.76238228 137.21328377 785.99240439 139.00195312 784.22265625 C145.08032461 778.17339059 150.82689865 772.06643603 156.1418457 765.32568359 C157.93044739 763.08705271 159.80270822 760.97587565 161.75 758.875 C199.65106781 716.61230137 227.20882574 662.97536231 245.12573242 609.53027344 C245.77709757 607.6451161 246.45624834 605.769515 247.1496582 603.89941406 C250.49490716 594.84051853 253.11511583 585.74137183 255.4375 576.375 C255.72539398 575.22047836 255.72539398 575.22047836 256.019104 574.04263306 C262.86675349 546.37293625 266.79824068 518.39684266 269 490 C269.09498779 488.82058838 269.18997559 487.64117676 269.2878418 486.42602539 C272.66163429 442.56672297 268.22907118 396.37733671 257.65820312 353.69921875 C257.08211054 351.33672632 256.5496846 348.97268175 256.046875 346.59375 C241.5908071 278.97903879 206.31448248 210.92986085 160.734375 159.13671875 C158.2092113 156.26649617 155.81762987 153.30454269 153.4375 150.3125 C149.51902215 145.47662896 145.24397272 141.11692861 140.7734375 136.80078125 C138.63298523 134.63922593 136.65777804 132.46985355 134.68359375 130.1640625 C130.9403398 125.84120466 126.87894071 121.94619911 122.6875 118.0625 C121.93621826 117.36229736 121.18493652 116.66209473 120.41088867 115.94067383 C118.2777701 113.95625436 116.13921336 111.97784342 114 110 C113.06414063 109.12601562 112.12828125 108.25203125 111.1640625 107.3515625 C104.43143791 101.15575847 97.25790995 95.55782809 90 90 C89.25959473 89.42975098 88.51918945 88.85950195 87.75634766 88.27197266 C45.62115142 55.89311708 -0.54144486 30.80180896 -51 14 C-51.63933472 13.78645874 -52.27866943 13.57291748 -52.93737793 13.35290527 C-78.54546751 4.81687541 -104.10440491 -1.29577256 -130.8125 -5.25 C-131.65424774 -5.37524048 -132.49599548 -5.50048096 -133.36325073 -5.6295166 C-154.30898746 -8.7116612 -174.96883731 -10.33978259 -196.15014648 -10.26074219 C-199.56316839 -10.2499979 -202.97566548 -10.26072521 -206.38867188 -10.2734375 C-219.28685328 -10.28116594 -231.96285759 -9.71601469 -244.77833557 -8.24850464 Z " fill="#010101" transform="translate(749,76)"/>
<path d="M0 0 C4.14231701 0.76083374 5.4329497 2.3174386 8.0625 5.5625 C8.68990451 8.77395231 8.68990451 8.77395231 8.69335651 12.48715687 C8.70081411 13.17502906 8.7082717 13.86290125 8.71595529 14.57161805 C8.73490109 16.88201643 8.7182001 19.19077735 8.70173645 21.50117493 C8.70804659 23.17191895 8.7165485 24.8426559 8.72705668 26.5133788 C8.74959945 31.10847963 8.74098362 35.70307933 8.7273711 40.29819596 C8.7181233 45.25184583 8.73764168 50.20539104 8.75369263 55.15901184 C8.77755681 63.74281401 8.78313528 72.32647258 8.77634621 80.91030312 C8.76655669 93.32109721 8.78426355 105.73173177 8.80871352 118.14250007 C8.84763229 138.27737659 8.86426778 158.41220759 8.86694336 178.54711914 C8.86959026 198.10801531 8.88269857 217.66885824 8.90991211 237.22973633 C8.91158549 238.43516892 8.91325887 239.64060152 8.91498295 240.88256238 C8.92344233 246.92977424 8.93210776 252.97698579 8.94087565 259.02419722 C9.01336443 309.203622 9.04971218 359.38302694 9.0625 409.5625 C9.49529266 409.1573819 9.92808533 408.75226379 10.37399292 408.33486938 C12.35029096 406.4856245 14.32748083 404.63733582 16.3046875 402.7890625 C16.9855542 402.15170166 17.6664209 401.51434082 18.36791992 400.85766602 C22.18056563 397.29502986 26.02955053 393.79521302 29.984375 390.390625 C33.42996128 387.35954534 36.7793809 384.22423548 40.14501953 381.10498047 C43.42805291 378.06464317 46.72943503 375.04814451 50.0625 372.0625 C53.92912567 368.59760167 57.75263786 365.08945432 61.5625 361.5625 C66.18600101 357.28272376 70.84342388 353.04491345 75.53515625 348.83984375 C78.39332184 346.26440242 81.22962083 343.66566201 84.0625 341.0625 C87.68993489 337.72921251 91.33143076 334.41303693 95 331.125 C98.88620598 327.63801903 102.73092807 324.10918015 106.5625 320.5625 C111.18602611 316.28275045 115.84342335 312.04491392 120.53515625 307.83984375 C123.39332203 305.26440225 126.22960261 302.66564236 129.0625 300.0625 C132.71177171 296.70956883 136.37419598 293.37251643 140.0625 290.0625 C145.76911694 284.93930716 151.41565354 279.75130061 157.0625 274.5625 C163.51346808 268.63480436 169.97968716 262.7265628 176.5 256.875 C179.36850409 254.28634997 182.2172665 251.67664854 185.0625 249.0625 C188.71179525 245.70959421 192.37419568 242.37251669 196.0625 239.0625 C201.76911694 233.93930716 207.41565354 228.75130061 213.0625 223.5625 C219.51346808 217.63480436 225.97968716 211.7265628 232.5 205.875 C235.88648321 202.81890539 239.24494814 199.73264388 242.60375977 196.64624023 C245.71883125 193.78647796 248.85101675 190.94734641 252 188.125 C255.88620598 184.63801903 259.73092807 181.10918015 263.5625 177.5625 C268.18602611 173.28275045 272.84342335 169.04491392 277.53515625 164.83984375 C280.39332339 162.26440103 283.22947496 159.66550461 286.0625 157.0625 C289.86483627 153.57205034 293.67281298 150.08823461 297.5 146.625 C298.26183594 145.93535156 299.02367187 145.24570313 299.80859375 144.53515625 C306.56406429 138.62265603 306.56406429 138.62265603 310.6875 138.125 C314.0625 138.5625 314.0625 138.5625 316 139.625 C317.69625604 142.71817279 317.41582315 145.09119113 317.0625 148.5625 C314.9375 151.40625 314.9375 151.40625 312.0625 154.0625 C311.55702637 154.53824463 311.05155273 155.01398926 310.53076172 155.50415039 C309.06043028 156.8776574 307.56202449 158.22092542 306.0625 159.5625 C305.04542969 160.47322266 305.04542969 160.47322266 304.0078125 161.40234375 C302.77013657 162.48863013 301.52502166 163.56648658 300.2734375 164.63671875 C297.40032016 167.13927502 294.60730864 169.72312593 291.8125 172.3125 C291.25667236 172.8271582 290.70084473 173.34181641 290.12817383 173.87207031 C288.99664125 174.91997284 287.86521253 175.96798753 286.73388672 177.01611328 C279.74614164 183.4812575 272.71005401 189.8916182 265.625 196.25 C262.75649591 198.83865003 259.9077335 201.44835146 257.0625 204.0625 C252.60914513 208.15416107 248.12590146 212.21072946 243.625 216.25 C240.75649591 218.83865003 237.9077335 221.44835146 235.0625 224.0625 C230.60914513 228.15416107 226.12590146 232.21072946 221.625 236.25 C218.75649591 238.83865003 215.9077335 241.44835146 213.0625 244.0625 C209.41320475 247.41540579 205.75080432 250.75248331 202.0625 254.0625 C196.35588306 259.18569284 190.70934646 264.37369939 185.0625 269.5625 C178.61153192 275.49019564 172.14531284 281.3984372 165.625 287.25 C162.75649591 289.83865003 159.9077335 292.44835146 157.0625 295.0625 C152.60914513 299.15416107 148.12590146 303.21072946 143.625 307.25 C140.75649591 309.83865003 137.9077335 312.44835146 135.0625 315.0625 C130.60914513 319.15416107 126.12590146 323.21072946 121.625 327.25 C118.23851679 330.30609461 114.88005186 333.39235612 111.52124023 336.47875977 C108.40616875 339.33852204 105.27398325 342.17765359 102.125 345 C98.23879402 348.48698097 94.39407193 352.01581985 90.5625 355.5625 C85.93897389 359.84224955 81.28157665 364.08008608 76.58984375 368.28515625 C73.73167797 370.86059775 70.89539739 373.45935764 68.0625 376.0625 C63.60917383 380.15419207 59.12590112 384.21072977 54.625 388.25 C51.75649591 390.83865003 48.9077335 393.44835146 46.0625 396.0625 C41.61185153 400.15167448 37.13171917 404.20619084 32.6328125 408.2421875 C30.24289064 410.39965496 27.86776112 412.57180499 25.49902344 414.75244141 C23.96456086 416.16263075 22.42390157 417.56581034 20.8828125 418.96875 C19.16627585 420.54739313 17.4680455 422.14666982 15.8046875 423.78125 C12.68926865 426.76227823 10.25681882 428.90513282 5.9375 429.6875 C0.9845443 429.52772724 -2.08840535 428.4464745 -5.58169895 424.88728619 C-7.45397777 421.6768978 -7.31480259 419.26160978 -7.31781673 415.55342102 C-7.32247665 414.84426383 -7.32713657 414.13510664 -7.3319377 413.40445983 C-7.34393745 411.01595442 -7.33447343 408.62801263 -7.32518005 406.23950195 C-7.3293508 404.51473041 -7.33482688 402.78996162 -7.34149987 401.06519794 C-7.35600717 396.3160456 -7.35169333 391.56706601 -7.34433305 386.817904 C-7.33961675 381.69990547 -7.35209752 376.58194515 -7.36235046 371.46395874 C-7.37957363 361.43402883 -7.38037125 351.40416147 -7.37513756 341.37422061 C-7.37110143 333.22502935 -7.37253277 325.07585663 -7.37788582 316.92666626 C-7.37863424 315.76826211 -7.37938266 314.60985797 -7.38015376 313.41635066 C-7.38168519 311.06331372 -7.38322353 308.71027678 -7.38476873 306.35723984 C-7.39850631 284.27598903 -7.39304708 262.19477362 -7.38158352 240.1135236 C-7.37164811 219.89561674 -7.38459492 199.67780135 -7.40851771 179.4599086 C-7.4328772 158.71724549 -7.44252445 137.97462504 -7.43586498 117.2319479 C-7.43236597 105.57962319 -7.4346498 93.92736887 -7.45211601 82.27505493 C-7.46679859 72.35648914 -7.46752519 62.43804332 -7.4500451 52.51947999 C-7.44150041 47.45571518 -7.43946974 42.39216503 -7.45469666 37.3284111 C-7.46845083 32.69722831 -7.46390116 28.06644596 -7.44445742 23.43528688 C-7.44066843 21.75567061 -7.44370189 20.07602297 -7.45406907 18.39643443 C-7.46712062 16.12099301 -7.45576383 13.84695821 -7.43807125 11.57157898 C-7.43791025 9.67243256 -7.43791025 9.67243256 -7.43774599 7.73491955 C-6.68532725 2.96329122 -4.72870974 0.90549761 0 0 Z " fill="#030303" transform="translate(548.9375,107.4375)"/>
</svg>
